<?xml version="1.0" standalone="no"?>
<!DOCTYPE svg PUBLIC "-//W3C//DTD SVG 1.0//EN" "http://www.w3.org/TR/2001/REC-SVG-20010904/DTD/svg10.dtd">
<svg xmlns="http://www.w3.org/2000/svg" xmlns:xlink="http://www.w3.org/1999/xlink" id="body_1" width="166" height="166">

<g transform="matrix(0.664 0 0 0.664 0 0)">
	<g transform="matrix(0.1 0 -0 -0.1 0 250)">
        <path d="M0 1895L0 1290L31 1290C 55 1290 61 1286 58 1273C 54 1250 20 1243 20 1264C 20 1273 16 1280 10 1280C 4 1280 4 1271 10 1255C 16 1239 16 1230 10 1230C 4 1230 0 1203 0 1170C 0 1111 4 1105 37 1109C 53 1111 54 1094 39 1085C 33 1081 31 1071 34 1061C 39 1048 38 1048 26 1063C 14 1079 12 1079 6 1064C -7 1030 1 1014 41 997C 64 987 85 982 89 986C 92 990 89 995 83 997C 64 1004 68 1030 88 1030C 97 1030 115 1033 128 1036C 141 1040 150 1038 150 1031C 150 1025 138 1017 123 1013L123 1013L95 1006L128 998C 171 987 169 973 123 969C 82 965 15 982 26 993C 30 997 27 1000 18 1000C 8 1000 3 987 1 950C -1 902 0 901 32 892C 55 885 68 886 75 895C 89 912 127 923 134 911C 140 901 100 869 67 857C 56 853 41 858 27 871L27 871L5 891L2 869C 0 857 4 843 12 839C 22 832 22 830 13 830C 3 830 0 740 0 415L0 415L0 0L394 0C 700 0 789 3 793 13C 797 22 799 22 799 13C 800 5 813 0 831 0C 859 0 861 2 849 17C 836 31 838 31 868 16C 901 -1 902 -1 895 19C 887 44 902 46 924 24C 938 10 941 10 946 24C 949 32 949 43 946 48C 934 68 972 69 993 50C 1019 25 1032 28 1037 60C 1039 73 1043 86 1046 89C 1056 100 1044 45 1032 25C 1023 11 1017 9 1014 18C 1011 25 1000 35 990 40C 975 48 972 46 974 25L974 25L975 1L1198 0C 1358 0 1420 3 1420 11C 1420 17 1413 19 1404 16C 1392 12 1389 16 1392 32C 1394 46 1403 56 1415 58C 1432 61 1432 59 1420 51C 1412 45 1410 40 1415 39C 1452 36 1490 20 1462 20C 1455 20 1450 16 1450 10C 1450 5 1459 0 1470 0C 1487 0 1489 5 1485 28L1485 28L1479 55L1495 28L1511 0L2005 0L2500 0L2500 1250L2500 2500L1250 2500L0 2500L0 1895zM1869 1749C 1882 1738 1887 1730 1881 1730C 1872 1730 1872 1725 1880 1710C 1887 1696 1887 1690 1880 1690C 1875 1690 1870 1682 1870 1672C 1870 1662 1864 1648 1858 1641C 1847 1631 1849 1626 1864 1615C 1877 1605 1881 1593 1877 1575C 1873 1552 1875 1549 1892 1553C 1907 1557 1910 1555 1905 1542C 1901 1533 1898 1521 1897 1515C 1896 1510 1891 1502 1885 1498C 1869 1486 1886 1479 1914 1486C 1940 1492 1941 1496 1940 1544C 1938 1601 1947 1640 1962 1640C 1968 1640 1969 1633 1964 1623C 1957 1606 1956 1583 1959 1515C 1963 1431 1960 1408 1945 1414C 1935 1418 1930 1413 1930 1400C 1930 1381 1931 1381 1950 1398C 1962 1407 1976 1415 1983 1415C 1990 1415 1995 1428 1994 1447C 1993 1498 2013 1477 2075 1359C 2118 1278 2139 1248 2157 1244C 2185 1237 2188 1220 2160 1220C 2138 1220 2128 1230 2100 1278C 2089 1295 2072 1310 2063 1310C 2050 1310 2048 1313 2058 1318C 2068 1325 2065 1339 2044 1384L2044 1384L2018 1441L1999 1416C 1989 1403 1980 1378 1980 1361C 1980 1331 1967 1320 1955 1340C 1945 1356 1930 1352 1930 1333C 1929 1316 1929 1316 1919 1333C 1913 1342 1910 1358 1911 1368C 1916 1419 1911 1430 1879 1430C 1862 1430 1851 1426 1855 1420C 1858 1415 1856 1410 1850 1410C 1843 1410 1841 1422 1846 1445C 1850 1468 1848 1480 1841 1480C 1834 1480 1830 1458 1830 1423C 1830 1337 1836 1322 1868 1327C 1895 1331 1895 1331 1865 1316C 1844 1305 1842 1302 1858 1306C 1879 1311 1880 1309 1874 1284C 1870 1268 1858 1247 1848 1236C 1830 1216 1830 1216 1830 1238C 1830 1249 1820 1266 1808 1275L1808 1275L1785 1292L1808 1285C 1828 1279 1830 1281 1826 1302C 1823 1315 1818 1362 1815 1408C 1810 1477 1811 1491 1824 1496C 1833 1499 1837 1506 1834 1511C 1826 1525 1840 1542 1854 1533C 1861 1529 1857 1533 1847 1543C 1836 1552 1818 1560 1806 1560C 1787 1560 1784 1564 1788 1591C 1792 1615 1796 1621 1812 1617C 1826 1613 1830 1616 1828 1628C 1826 1638 1813 1646 1797 1648C 1779 1650 1770 1657 1770 1669C 1770 1679 1763 1693 1754 1701C 1729 1722 1708 1768 1722 1772C 1750 1782 1846 1766 1869 1749zM1657 1750C 1641 1745 1619 1745 1607 1750C 1590 1757 1597 1759 1635 1759C 1678 1758 1681 1757 1657 1750zM1668 1626C 1649 1616 1644 1617 1642 1628C 1637 1648 1661 1661 1677 1648C 1688 1639 1686 1635 1668 1626zM350 1545C 400 1514 406 1498 393 1447C 383 1412 385 1404 406 1372C 419 1353 430 1329 430 1319C 430 1298 386 1299 875 1301C 1035 1301 1192 1300 1225 1299C 1258 1298 1306 1296 1331 1296C 1369 1295 1376 1292 1372 1278C 1369 1266 1361 1262 1346 1264C 1335 1267 1325 1269 1325 1270C 1325 1275 1191 1272 1183 1267C 1177 1263 1170 1264 1168 1269C 1164 1279 1006 1290 991 1281C 985 1277 956 1277 927 1280C 898 1283 863 1283 849 1279L849 1279L825 1272L852 1271C 867 1270 882 1265 885 1260C 889 1254 888 1250 883 1251C 863 1254 840 1249 840 1241C 840 1236 859 1233 883 1233C 906 1233 938 1229 953 1225C 977 1219 982 1221 987 1239C 993 1264 1005 1266 1014 1245C 1018 1234 1034 1230 1069 1230C 1100 1230 1120 1225 1123 1217C 1128 1203 1117 1200 1068 1198C 1052 1198 1040 1193 1040 1189C 1040 1184 1043 1181 1048 1182C 1052 1182 1063 1180 1072 1176C 1082 1171 1104 1173 1121 1179C 1161 1193 1183 1193 1175 1180C 1172 1175 1174 1170 1179 1170C 1185 1170 1190 1176 1190 1183C 1190 1191 1193 1190 1200 1180C 1207 1168 1212 1168 1222 1178C 1231 1187 1231 1190 1220 1190C 1207 1190 1207 1192 1220 1200C 1241 1214 1250 1212 1250 1195C 1250 1187 1256 1180 1264 1180C 1272 1180 1277 1173 1276 1164C 1276 1155 1283 1146 1293 1145C 1302 1143 1310 1146 1310 1152C 1310 1158 1302 1159 1293 1156C 1278 1151 1278 1152 1294 1165C 1305 1173 1308 1180 1302 1180C 1292 1180 1292 1185 1300 1200C 1306 1211 1316 1220 1322 1220C 1329 1220 1328 1215 1320 1205C 1310 1193 1313 1191 1344 1192C 1364 1193 1380 1197 1380 1202C 1380 1207 1375 1208 1370 1205C 1358 1197 1357 1210 1369 1229C 1374 1236 1382 1240 1387 1237C 1391 1234 1422 1230 1455 1229C 1500 1227 1519 1222 1533 1207C 1542 1196 1550 1192 1550 1198C 1550 1205 1559 1210 1570 1210C 1581 1210 1590 1215 1590 1221C 1590 1226 1594 1229 1600 1225C 1605 1222 1618 1225 1628 1231C 1647 1243 1680 1238 1680 1223C 1680 1218 1660 1208 1635 1199C 1611 1190 1593 1187 1596 1191C 1599 1196 1594 1200 1586 1200C 1577 1200 1570 1193 1570 1185C 1570 1176 1564 1173 1555 1176C 1544 1181 1542 1178 1546 1166C 1549 1157 1561 1150 1572 1150C 1582 1150 1588 1155 1585 1160C 1581 1166 1592 1170 1609 1170C 1626 1170 1640 1175 1640 1180C 1640 1186 1645 1190 1651 1190C 1656 1190 1660 1182 1658 1173C 1657 1163 1659 1149 1664 1141C 1672 1129 1663 1128 1614 1133C 1582 1136 1542 1142 1525 1145C 1509 1149 1459 1153 1415 1153C 1354 1155 1336 1152 1338 1142C 1339 1135 1335 1130 1328 1131C 1297 1135 1269 1129 1275 1120C 1278 1115 1276 1110 1271 1110C 1265 1110 1260 1121 1260 1135C 1260 1157 1256 1160 1223 1159C 1186 1158 1186 1157 1215 1151C 1232 1148 1245 1138 1245 1130C 1245 1118 1229 1115 1162 1116C 1106 1116 1081 1113 1085 1106C 1088 1100 1093 1087 1096 1077C 1100 1067 1108 1061 1115 1064C 1122 1066 1130 1060 1133 1049C 1136 1039 1134 1030 1128 1030C 1122 1030 1120 1019 1124 1003C 1130 978 1133 958 1139 910C 1140 897 1141 897 1150 910C 1156 920 1160 921 1160 913C 1160 906 1167 900 1175 900C 1183 900 1190 908 1190 919C 1190 929 1197 943 1205 950C 1214 958 1218 971 1214 982C 1209 998 1212 1000 1234 994C 1254 989 1260 992 1260 1004C 1260 1013 1254 1020 1248 1021C 1241 1021 1244 1025 1255 1030C 1280 1041 1296 1042 1287 1033C 1272 1018 1322 1000 1373 1001C 1402 1002 1435 997 1446 991C 1461 981 1462 980 1448 984C 1426 991 1423 962 1445 954C 1453 950 1457 944 1454 938C 1450 933 1443 933 1435 940C 1428 946 1416 948 1407 944C 1393 939 1394 934 1411 904C 1422 884 1437 858 1446 845C 1460 823 1459 820 1428 783C 1410 762 1391 742 1387 739C 1382 736 1379 730 1379 726C 1382 706 1378 702 1360 707C 1350 710 1342 717 1343 724C 1344 730 1335 734 1321 732C 1301 730 1299 732 1310 745C 1322 759 1325 759 1341 744C 1359 728 1361 728 1379 744C 1395 759 1396 765 1386 791C 1380 808 1364 835 1349 852C 1327 880 1322 882 1301 871C 1284 862 1280 852 1284 837C 1289 815 1289 815 1275 835C 1267 846 1257 860 1252 866C 1246 873 1249 881 1261 888C 1276 898 1278 897 1273 884C 1268 869 1270 870 1293 885C 1319 901 1333 919 1309 904C 1303 901 1294 904 1289 911C 1281 923 1277 922 1267 908C 1260 899 1243 892 1230 892C 1181 892 1130 887 1130 881C 1130 878 1119 870 1105 863C 1090 857 1080 856 1080 862C 1080 867 1075 868 1070 865C 1061 859 1056 887 1056 942C 1057 955 1051 958 1035 954C 1008 947 960 966 960 982C 960 992 962 992 969 981C 975 972 980 971 984 979C 991 990 981 996 946 1002C 935 1004 925 1011 922 1018C 920 1025 924 1028 933 1024C 941 1021 951 1023 954 1028C 957 1033 944 1041 924 1045C 886 1052 885 1062 922 1065C 947 1067 960 1090 935 1090C 920 1090 920 1091 935 1106C 944 1115 950 1123 948 1124C 946 1125 937 1132 927 1139C 912 1151 910 1151 916 1135C 922 1120 920 1119 901 1129C 889 1136 882 1145 885 1151C 893 1163 937 1163 942 1150C 946 1137 992 1161 998 1179C 1001 1189 998 1191 984 1186C 967 1179 967 1180 985 1200C 995 1211 998 1220 992 1220C 986 1220 978 1215 975 1210C 971 1204 965 1202 960 1205C 955 1208 949 1201 945 1190C 942 1179 934 1170 929 1170C 923 1170 923 1178 930 1190C 936 1201 937 1210 933 1211C 882 1217 869 1216 874 1203C 877 1196 875 1190 869 1190C 863 1190 861 1186 864 1182C 866 1178 858 1173 844 1172C 831 1171 820 1174 820 1179C 820 1184 807 1193 791 1198C 769 1206 760 1205 749 1192C 718 1156 731 1147 817 1148C 850 1149 862 1144 870 1130C 879 1114 877 1110 863 1109C 853 1109 821 1108 792 1107C 764 1106 740 1108 740 1111C 740 1115 722 1114 700 1110C 661 1103 654 1108 659 1142C 659 1146 653 1147 645 1144C 631 1138 626 1126 629 1108C 629 1103 626 1100 620 1100C 615 1100 610 1105 610 1110C 610 1128 575 1121 562 1100C 555 1089 554 1080 559 1080C 564 1080 571 1086 574 1093C 579 1103 581 1103 586 1093C 589 1086 598 1080 605 1080C 612 1080 620 1073 624 1065C 628 1053 621 1050 595 1050C 576 1050 560 1055 560 1060C 560 1066 553 1070 544 1070C 536 1070 532 1066 535 1060C 541 1050 531 1049 435 1044C 368 1041 363 1039 385 1030C 402 1023 402 1021 388 1021C 374 1020 370 1011 370 985C 370 949 382 942 410 960C 419 966 427 965 431 958C 436 951 443 951 456 958C 467 964 483 965 496 960C 511 954 520 955 524 963C 526 970 529 963 529 948C 530 931 519 910 501 891L501 891L472 862L474 886C 474 899 478 910 481 910C 490 910 485 948 475 957C 471 962 470 959 475 951C 482 940 476 938 446 943C 404 950 369 934 377 913C 380 905 377 900 371 902C 364 904 353 890 345 872C 337 854 335 842 340 845C 346 849 347 843 343 833C 332 802 318 790 295 790C 264 790 261 816 273 939C 282 1028 282 1042 267 1058C 258 1068 247 1090 244 1108C 241 1125 229 1147 219 1156C 208 1165 200 1180 200 1189C 200 1203 198 1203 190 1190C 182 1178 180 1181 180 1203C 180 1219 184 1229 189 1226C 193 1223 200 1251 204 1287C 210 1349 209 1355 188 1372C 174 1383 170 1390 179 1390C 190 1390 190 1393 180 1405C 174 1413 172 1425 176 1431C 181 1439 178 1442 169 1438C 161 1436 147 1442 137 1452C 121 1469 122 1470 164 1470C 219 1470 270 1480 270 1491C 270 1496 263 1497 255 1494C 236 1486 234 1530 253 1549C 263 1559 253 1561 202 1558C 168 1557 140 1558 140 1562C 140 1576 168 1580 237 1575C 292 1571 320 1564 350 1545zM1250 1385C 1250 1367 1246 1362 1235 1366C 1227 1370 1220 1381 1220 1391C 1220 1401 1227 1410 1235 1410C 1244 1410 1250 1401 1250 1385zM1870 1356C 1870 1330 1864 1338 1856 1375C 1851 1397 1852 1401 1860 1390C 1865 1382 1870 1366 1870 1356zM1999 1252C 2004 1250 2006 1242 2003 1234C 2000 1227 1994 1223 1989 1226C 1984 1229 1980 1226 1980 1220C 1980 1214 1976 1211 1971 1215C 1966 1218 1959 1216 1956 1211C 1949 1200 1910 1209 1910 1221C 1910 1226 1923 1230 1938 1230C 1965 1230 1967 1232 1965 1268C 1962 1318 1973 1333 1981 1290C 1985 1271 1993 1254 1999 1252zM1444 1288C 1438 1278 1440 1278 1452 1288C 1463 1297 1470 1298 1475 1290C 1478 1284 1485 1282 1490 1285C 1495 1288 1498 1282 1497 1271C 1496 1256 1490 1253 1470 1255C 1456 1257 1435 1259 1422 1259C 1402 1260 1401 1262 1412 1280C 1419 1291 1431 1300 1438 1300C 1446 1300 1448 1295 1444 1288zM1678 1272C 1680 1265 1676 1262 1666 1266C 1657 1269 1650 1267 1650 1261C 1650 1254 1636 1250 1616 1252C 1597 1253 1583 1257 1586 1262C 1589 1266 1597 1267 1605 1263C 1613 1260 1620 1263 1620 1268C 1620 1289 1671 1292 1678 1272zM1940 1268C 1940 1249 1938 1248 1930 1260C 1917 1279 1917 1290 1930 1290C 1936 1290 1940 1280 1940 1268zM1702 1255C 1703 1244 1714 1230 1725 1223C 1743 1212 1743 1211 1728 1210C 1718 1210 1710 1204 1710 1196C 1710 1175 1734 1160 1758 1167C 1782 1173 1787 1161 1768 1142C 1759 1133 1763 1130 1789 1130C 1807 1130 1819 1126 1816 1121C 1813 1116 1801 1114 1790 1117C 1774 1121 1770 1117 1770 1099L1770 1099L1770 1076L1749 1099C 1736 1112 1720 1120 1709 1117C 1688 1111 1684 1122 1686 1170C 1687 1189 1688 1223 1689 1244C 1690 1285 1696 1290 1702 1255zM1313 1229C 1306 1222 1294 1221 1283 1225C 1267 1232 1268 1234 1290 1240C 1320 1248 1328 1244 1313 1229zM1575 1240C 1578 1235 1576 1230 1571 1230C 1565 1230 1560 1235 1560 1240C 1560 1246 1562 1250 1564 1250C 1567 1250 1572 1246 1575 1240zM1260 1231C 1260 1227 1248 1224 1234 1226C 1196 1230 1192 1240 1228 1240C 1246 1240 1260 1236 1260 1231zM1884 1221C 1887 1217 1887 1210 1884 1207C 1876 1199 1850 1210 1850 1221C 1850 1232 1877 1233 1884 1221zM1774 1214C 1783 1211 1788 1204 1785 1199C 1778 1189 1750 1199 1750 1211C 1750 1222 1753 1222 1774 1214zM1925 1190C 1922 1185 1924 1180 1931 1180C 1938 1180 1941 1177 1937 1174C 1928 1165 1909 1180 1915 1191C 1919 1196 1923 1200 1926 1200C 1929 1200 1928 1196 1925 1190zM1907 1148C 1904 1140 1901 1143 1901 1154C 1900 1165 1903 1171 1906 1167C 1909 1164 1910 1155 1907 1148zM1976 1155C 1993 1139 1990 1137 1966 1146C 1957 1149 1950 1156 1950 1161C 1950 1174 1959 1172 1976 1155zM125 1099C 134 1086 130 1083 105 1078C 94 1077 82 1071 79 1067C 76 1062 70 1065 67 1074C 63 1084 66 1090 76 1090C 84 1090 88 1095 85 1100C 82 1106 88 1110 99 1110C 110 1110 122 1105 125 1099zM889 1086C 898 1075 897 1072 883 1074C 871 1074 865 1068 865 1055C 865 1044 870 1036 877 1037C 884 1039 898 1026 910 1010C 926 988 928 980 917 980C 910 980 887 965 867 947C 832 916 820 897 839 903C 844 904 848 901 849 895C 850 890 846 885 841 885C 820 885 816 867 835 854C 853 840 851 839 802 841C 741 844 723 858 740 890C 746 902 749 914 747 917C 744 919 739 912 735 901C 732 889 725 880 720 880C 715 880 713 874 716 866C 719 858 717 849 711 845C 705 842 700 833 700 827C 700 820 705 823 711 833C 716 842 725 850 730 850C 745 850 742 820 728 819C 721 819 705 817 693 816C 666 813 666 813 686 851C 718 914 674 898 640 834C 615 788 562 746 516 734C 480 725 473 710 504 710C 534 710 536 705 515 684C 499 667 480 673 480 696C 480 704 476 710 470 710C 465 710 477 743 497 784C 529 849 538 859 572 871C 593 878 610 886 610 889C 609 904 581 930 566 930C 546 930 545 959 565 966C 591 976 569 992 531 989C 511 988 486 988 475 989C 459 990 458 992 470 1000C 479 1005 489 1005 497 998C 507 990 510 992 510 1004C 510 1013 515 1020 520 1020C 526 1020 530 1016 530 1010C 530 1005 537 1000 546 1000C 554 1000 559 1004 556 1008C 553 1013 556 1017 563 1018C 570 1018 585 1022 598 1025C 614 1030 620 1028 620 1017C 620 1007 614 1004 600 1007C 574 1014 574 993 600 985C 611 982 620 971 620 962C 620 949 618 949 607 965C 598 976 591 979 586 972C 575 954 590 932 610 937C 620 940 631 937 635 931C 638 925 638 920 633 921C 613 924 599 919 605 911C 611 900 650 900 650 911C 650 915 657 920 664 923C 674 927 677 924 673 914C 668 902 672 901 696 912C 712 918 734 931 744 939C 755 948 760 949 756 943C 746 926 762 927 786 945C 796 953 813 960 823 960C 838 960 845 971 841 993C 839 1005 858 1001 863 988C 866 981 869 987 869 1002C 870 1020 861 1035 843 1049C 816 1069 816 1069 838 1070C 851 1070 860 1076 860 1085C 860 1104 874 1104 889 1086zM1137 1084C 1134 1081 1125 1080 1118 1083C 1110 1086 1113 1089 1124 1089C 1135 1090 1141 1087 1137 1084zM1691 1071C 1702 1058 1702 1057 1687 1063C 1678 1066 1670 1065 1670 1060C 1670 1055 1680 1048 1693 1046C 1705 1044 1741 1037 1772 1030C 1804 1024 1834 1021 1840 1025C 1846 1028 1847 1024 1844 1015C 1840 1005 1832 1001 1821 1006C 1790 1019 1750 1022 1750 1011C 1750 991 1713 999 1697 1023C 1689 1035 1678 1041 1674 1037C 1669 1033 1672 1025 1679 1021C 1686 1016 1689 1007 1686 1001C 1676 986 1660 987 1660 1003C 1660 1011 1643 1015 1605 1014C 1575 1013 1553 1016 1556 1021C 1559 1026 1581 1027 1605 1024C 1631 1021 1650 1023 1650 1029C 1650 1039 1611 1056 1597 1052C 1592 1050 1590 1055 1593 1062C 1598 1076 1603 1076 1635 1064C 1655 1057 1655 1058 1636 1072C 1617 1087 1618 1087 1647 1086C 1664 1086 1683 1079 1691 1071zM1734 1081C 1737 1076 1733 1070 1725 1067C 1716 1063 1713 1066 1717 1076C 1723 1092 1727 1093 1734 1081zM1574 1072C 1576 1068 1569 1063 1557 1063C 1540 1061 1538 1063 1550 1070C 1568 1082 1568 1082 1574 1072zM799 1037C 810 1040 827 1037 837 1031C 854 1021 854 1021 838 1020C 822 1020 815 1003 819 978C 819 973 811 970 799 970C 788 970 781 966 784 961C 787 957 779 955 765 957C 750 960 743 967 747 976C 750 984 747 990 741 990C 735 990 730 998 730 1008C 730 1022 728 1022 721 1011C 716 1003 701 995 688 993C 671 991 669 992 680 999C 688 1004 698 1006 702 1004C 706 1001 710 1006 710 1014C 710 1023 716 1030 724 1030C 734 1030 736 1037 732 1052L732 1052L727 1074L753 1053C 768 1041 789 1034 799 1037zM1486 1058C 1490 1053 1477 1050 1456 1050C 1434 1050 1421 1046 1425 1040C 1428 1035 1439 1030 1448 1030C 1458 1030 1471 1021 1478 1009C 1490 990 1489 990 1470 1000C 1459 1006 1450 1008 1450 1004C 1450 1000 1441 1005 1429 1016C 1416 1028 1397 1033 1374 1031C 1346 1029 1340 1032 1340 1048C 1340 1065 1347 1067 1409 1066C 1447 1065 1482 1062 1486 1058zM1217 1025C 1217 1017 1211 1010 1203 1010C 1189 1010 1186 1022 1197 1033C 1208 1044 1217 1041 1217 1025zM637 1008C 634 1000 631 1003 631 1014C 630 1025 633 1031 636 1027C 639 1024 640 1015 637 1008zM1180 1020C 1180 1015 1176 1010 1170 1010C 1165 1010 1160 1015 1160 1020C 1160 1026 1165 1030 1170 1030C 1176 1030 1180 1026 1180 1020zM1537 1024C 1534 1021 1525 1020 1518 1023C 1510 1026 1513 1029 1524 1029C 1535 1030 1541 1027 1537 1024zM243 911C 233 891 221 872 216 869C 212 865 215 851 224 838C 244 808 232 794 182 784C 141 776 140 793 178 846C 193 867 211 903 219 925C 227 947 238 976 243 990C 254 1015 254 1015 258 981C 260 961 254 932 243 911zM657 993C 653 990 658 981 668 973C 684 959 684 959 667 964C 657 967 644 970 638 970C 632 970 632 976 640 985C 647 993 655 1000 658 1000C 661 1000 660 997 657 993zM1897 984C 1894 981 1885 980 1878 983C 1870 986 1873 989 1884 989C 1895 990 1901 987 1897 984zM45 950C 42 945 31 940 22 941C 8 941 9 943 25 950C 52 961 52 961 45 950zM660 939C 660 933 656 932 650 935C 645 938 640 946 640 951C 640 957 645 958 650 955C 656 952 660 944 660 939zM943 931C 946 918 944 913 934 917C 927 919 924 928 927 936C 934 955 937 954 943 931zM1917 934C 1914 931 1905 930 1898 933C 1890 936 1893 939 1904 939C 1915 940 1921 937 1917 934zM1990 926C 1990 923 1986 918 1980 915C 1975 912 1970 914 1970 919C 1970 925 1975 930 1980 930C 1986 930 1990 928 1990 926zM2304 904C 2309 890 2308 889 2295 900C 2287 907 2273 910 2265 906C 2257 903 2250 905 2250 910C 2250 927 2297 921 2304 904zM580 901C 580 896 571 894 560 897C 549 900 540 904 540 906C 540 908 549 910 560 910C 571 910 580 906 580 901zM2253 880C 2260 880 2271 871 2278 859C 2290 840 2289 839 2260 844C 2220 850 2221 849 2228 885C 2232 905 2235 909 2238 898C 2240 888 2247 880 2253 880zM88 828C 85 821 75 813 65 812C 50 808 49 810 61 824C 78 843 93 845 88 828zM940 816C 940 792 925 790 912 811C 901 827 903 830 920 830C 931 830 940 824 940 816zM896 805C 903 799 897 791 876 779C 829 754 802 771 836 805C 853 821 878 822 896 805zM2125 810C 2128 805 2126 800 2121 800C 2115 800 2110 805 2110 810C 2110 816 2112 820 2114 820C 2117 820 2122 816 2125 810zM816 798C 821 791 816 789 802 792C 790 795 780 794 778 788C 776 783 766 782 756 786C 737 793 737 794 756 801C 785 812 808 811 816 798zM2259 781C 2266 776 2271 767 2268 760C 2266 753 2258 756 2246 769C 2227 790 2234 797 2259 781zM1094 755C 1090 747 1086 740 1084 740C 1082 740 1080 747 1080 755C 1080 763 1084 770 1090 770C 1095 770 1097 763 1094 755zM2033 756C 2055 739 2055 729 2033 737C 2022 741 2019 740 2024 732C 2028 725 2040 720 2051 720C 2063 720 2068 724 2064 731C 2060 738 2064 740 2076 736C 2087 733 2102 735 2110 741C 2123 750 2122 751 2107 746C 2096 743 2091 744 2095 750C 2107 770 2128 759 2133 730C 2138 709 2145 701 2157 703C 2167 704 2176 709 2177 714C 2181 737 2240 741 2240 719C 2240 714 2246 710 2254 710C 2261 710 2270 701 2273 690C 2279 666 2265 663 2256 687C 2247 709 2231 692 2228 657C 2226 630 2215 621 2208 640C 2206 646 2187 653 2165 657C 2143 660 2117 669 2108 677C 2093 691 2061 697 2006 699C 1993 700 1989 705 1993 720C 1996 731 1994 740 1989 740C 1983 740 1985 747 1992 755C 2008 773 2011 773 2033 756zM2153 755C 2157 747 2156 739 2152 736C 2148 733 2143 740 2143 751C 2141 774 2146 776 2153 755zM2295 761C 2298 756 2296 749 2290 745C 2285 742 2280 746 2280 754C 2280 772 2286 775 2295 761zM617 734C 614 731 605 730 598 733C 590 736 593 739 604 739C 615 740 621 737 617 734zM690 721C 690 716 673 706 653 699C 632 693 612 682 608 676C 602 668 600 668 600 677C 600 683 591 686 580 683C 566 679 560 683 560 694C 560 708 567 710 593 706C 611 703 636 707 650 715C 680 732 690 733 690 721zM1324 712C 1326 708 1325 698 1321 691C 1311 676 1274 680 1281 695C 1283 701 1288 704 1293 703C 1297 701 1300 705 1300 710C 1300 722 1317 723 1324 712zM2247 658C 2244 651 2242 656 2242 670C 2242 684 2244 689 2247 683C 2249 676 2249 664 2247 658zM180 654C 180 646 176 642 170 645C 165 648 160 655 160 661C 160 666 165 670 170 670C 176 670 180 663 180 654zM1072 648C 1061 637 1040 645 1040 660C 1040 664 1049 666 1061 663C 1074 659 1078 654 1072 648zM330 615C 330 613 323 610 315 606C 306 603 300 606 300 615C 300 624 306 627 315 624C 323 620 330 617 330 615zM881 618C 881 608 883 608 887 618C 893 633 911 634 908 618C 904 602 952 602 970 619C 980 629 985 629 988 621C 994 602 969 579 949 585C 938 589 930 587 930 580C 930 573 924 572 911 579C 901 585 890 586 886 583C 883 580 880 581 880 587C 880 593 870 596 858 594C 845 592 841 592 848 596C 854 599 860 608 860 616C 860 633 880 635 881 618zM631 590C 606 568 560 563 560 581C 560 587 567 590 575 587C 583 583 592 585 595 590C 598 595 590 601 578 603C 565 605 578 608 605 608L605 608L655 609L631 590zM735 600C 732 595 721 590 712 590C 697 590 697 592 710 600C 730 613 743 613 735 600zM1198 589C 1196 583 1190 579 1185 579C 1180 579 1174 583 1172 589C 1170 595 1176 600 1185 600C 1194 600 1200 595 1198 589zM688 573C 678 571 662 571 653 573C 643 576 651 578 670 578C 689 578 697 576 688 573zM957 545C 957 528 944 525 936 539C 932 544 936 551 942 553C 949 556 955 559 956 559C 956 560 957 553 957 545zM847 526C 842 510 820 507 820 523C 820 530 827 537 835 537C 844 537 849 532 847 526zM330 522C 330 518 312 516 290 518C 268 520 250 524 250 526C 250 528 268 530 290 530C 312 530 330 527 330 522zM720 525C 720 523 713 517 705 510C 693 500 690 500 690 512C 690 520 697 527 705 527C 713 527 720 526 720 525zM1020 520C 1029 514 1037 515 1042 523C 1047 531 1050 530 1050 518C 1050 508 1038 494 1023 486C 1007 478 999 471 1004 470C 1009 470 1007 463 1000 455C 986 438 997 435 1019 449C 1028 455 1041 455 1052 449C 1080 434 1074 419 1044 430C 1030 436 1015 438 1010 435C 998 427 972 440 966 456C 963 465 965 468 970 465C 976 462 980 465 980 473C 980 482 971 485 950 482C 915 477 913 470 939 450C 957 438 957 435 943 425C 930 415 930 411 940 405C 949 400 951 401 946 408C 941 416 944 418 954 414C 977 405 974 390 950 395C 939 397 930 394 930 389C 930 383 925 382 920 385C 914 388 907 385 904 376C 901 368 892 364 883 367C 873 371 872 375 880 380C 887 385 880 395 858 408C 830 427 831 436 862 431C 866 431 867 444 863 460C 860 479 862 490 869 490C 875 490 880 484 881 478C 881 468 883 468 887 478C 889 484 896 488 901 484C 906 481 910 483 910 489C 910 494 904 501 898 503C 891 506 901 508 920 509C 948 509 951 507 935 500C 922 494 920 491 930 491C 938 491 952 495 960 500C 968 505 971 510 967 510C 962 510 962 515 965 520C 973 532 1000 533 1020 520zM1085 500C 1088 495 1084 490 1076 490C 1067 490 1060 495 1060 500C 1060 506 1064 510 1069 510C 1075 510 1082 506 1085 500zM843 471C 837 468 831 458 828 450C 823 438 821 438 815 454C 810 465 812 475 821 480C 836 490 857 481 843 471zM1193 468C 1202 437 1195 435 1182 465C 1176 479 1174 490 1179 490C 1184 490 1190 480 1193 468zM2416 475C 2429 462 2429 460 2417 460C 2409 460 2400 467 2396 475C 2393 483 2393 490 2396 490C 2399 490 2408 483 2416 475zM651 473C 662 483 662 482 652 469C 646 460 644 450 648 445C 652 441 645 443 632 449C 619 456 604 460 599 458C 593 456 604 448 624 440C 644 433 660 423 660 418C 660 408 609 419 596 431C 580 445 557 441 563 426C 567 416 563 414 549 417C 531 422 532 425 561 451C 586 473 597 477 615 470C 630 464 642 466 651 473zM1070 470C 1070 458 1062 458 1035 470C 1017 478 1018 479 1043 479C 1058 480 1070 476 1070 470zM1126 465C 1123 457 1126 450 1132 450C 1138 450 1141 448 1139 445C 1136 443 1121 445 1104 449C 1080 457 1079 458 1098 459C 1110 460 1120 465 1120 470C 1120 476 1123 480 1126 480C 1129 480 1130 473 1126 465zM1780 464C 1780 456 1761 451 1756 458C 1753 463 1757 467 1765 467C 1773 467 1780 465 1780 464zM465 450C 468 445 464 440 456 440C 447 440 440 445 440 450C 440 456 444 460 449 460C 455 460 462 456 465 450zM1657 412C 1634 407 1610 416 1610 429C 1610 435 1623 434 1643 427C 1666 419 1670 415 1657 412zM994 408C 990 402 994 393 1001 388C 1013 380 1013 379 1001 382C 993 384 983 396 979 408C 973 424 974 428 985 423C 993 420 997 413 994 408zM485 389C 482 374 485 370 496 374C 508 378 508 376 500 360C 486 333 472 327 474 348C 474 358 469 364 460 362C 450 361 451 364 464 375C 475 383 480 390 476 390C 472 390 472 395 475 400C 485 416 489 412 485 389zM806 391C 802 386 806 380 812 377C 822 374 821 369 810 356C 796 341 795 343 796 368C 799 401 799 400 806 400C 809 400 809 396 806 391zM1034 367C 1036 352 1034 340 1029 340C 1024 340 1020 354 1020 372C 1020 409 1027 406 1034 367zM860 381C 860 364 842 360 836 375C 833 384 836 390 845 390C 853 390 860 386 860 381zM1086 368C 1085 355 1081 344 1077 343C 1060 337 1054 341 1054 360C 1054 373 1059 379 1067 376C 1074 373 1080 375 1080 380C 1080 386 1082 390 1084 390C 1087 390 1088 380 1086 368zM765 370C 768 365 766 360 761 360C 755 360 750 365 750 370C 750 376 752 380 754 380C 757 380 762 376 765 370zM978 344C 969 335 957 331 951 334C 937 343 937 360 951 360C 956 360 958 355 954 348C 950 341 951 340 958 344C 965 348 970 359 970 368C 970 380 973 381 982 372C 991 363 991 356 978 344zM437 364C 434 360 435 349 441 338C 447 327 449 316 446 313C 443 310 436 318 431 331C 423 354 425 370 437 370C 441 370 440 367 437 364zM940 329C 940 325 930 320 918 317C 900 312 899 309 910 296C 917 287 930 280 939 280C 950 280 951 277 943 272C 937 268 927 249 922 230L922 230L912 195L910 230C 909 258 907 261 901 245C 892 223 870 218 858 235C 854 240 850 231 850 214C 850 185 853 182 881 184C 900 184 914 180 916 172C 917 165 916 164 913 170C 911 175 904 180 899 180C 893 180 892 175 895 170C 899 163 893 161 876 166C 862 169 842 169 833 166C 818 160 818 158 830 150C 843 142 842 140 828 140C 818 140 810 145 810 151C 810 157 801 159 790 155C 778 151 770 153 770 160C 770 167 762 170 750 167C 739 164 727 166 724 171C 721 176 727 181 737 181C 754 182 754 183 738 187C 716 192 715 213 734 229C 744 237 750 238 755 230C 758 225 766 220 772 220C 779 220 779 224 771 233C 765 241 763 250 767 253C 773 260 754 264 736 261C 731 260 733 266 740 275C 747 283 755 288 758 285C 761 282 770 286 778 293C 791 302 792 302 786 293C 781 284 784 282 794 286C 803 289 810 296 810 302C 810 307 817 318 825 326C 837 338 840 338 841 328C 841 319 843 319 846 327C 849 334 857 337 864 334C 870 332 885 338 895 348C 913 365 916 365 927 351C 934 342 940 332 940 329zM1834 337C 1839 316 1838 316 1825 334C 1818 344 1807 349 1801 345C 1794 342 1793 345 1796 354C 1804 374 1827 364 1834 337zM344 347C 341 339 333 333 325 333C 304 333 306 348 328 353C 337 356 346 358 347 359C 348 359 347 354 344 347zM990 325C 983 317 973 310 968 310C 962 310 963 317 970 325C 977 333 987 340 992 340C 998 340 997 333 990 325zM1233 315C 1237 307 1236 299 1232 296C 1228 293 1223 300 1223 311C 1221 334 1226 336 1233 315zM1854 299C 1852 295 1855 290 1862 288C 1869 285 1870 281 1864 277C 1859 274 1849 279 1843 289C 1834 303 1835 307 1846 307C 1853 307 1857 303 1854 299zM346 264C 365 244 380 226 380 224C 380 216 373 220 350 240C 329 258 324 259 305 246C 288 235 280 234 271 243C 256 258 257 273 273 267C 287 262 312 284 303 294C 299 297 300 300 304 300C 308 300 327 284 346 264zM1204 284C 1208 274 1205 270 1198 272C 1183 277 1175 300 1188 300C 1193 300 1201 293 1204 284zM1247 264C 1244 261 1235 260 1228 263C 1220 266 1223 269 1234 269C 1245 270 1251 267 1247 264zM1450 249C 1450 243 1446 242 1440 245C 1435 248 1430 256 1430 261C 1430 267 1435 268 1440 265C 1446 262 1450 254 1450 249zM410 250C 410 245 405 240 399 240C 394 240 392 245 395 250C 398 256 403 260 406 260C 408 260 410 256 410 250zM974 234C 978 223 976 222 960 233C 949 239 940 248 940 252C 940 264 968 249 974 234zM1494 230C 1488 224 1484 228 1483 242C 1481 258 1484 260 1493 251C 1500 244 1501 237 1494 230zM499 247C 497 246 486 238 475 230C 456 216 456 216 469 233C 476 242 487 250 493 250C 499 250 501 249 499 247zM1258 230C 1265 219 1267 210 1264 210C 1261 210 1247 219 1233 230C 1211 247 1210 250 1226 250C 1237 250 1251 241 1258 230zM543 233C 536 231 530 220 530 209C 530 199 526 190 520 190C 515 190 510 196 510 203C 510 219 530 240 545 239C 550 239 549 236 543 233zM697 212C 696 197 692 195 673 204C 646 217 644 227 668 233C 691 238 699 233 697 212zM1204 209C 1202 204 1204 190 1211 178C 1220 159 1220 157 1209 168C 1194 182 1176 184 1184 171C 1192 158 1181 133 1165 126C 1156 123 1153 126 1157 136C 1160 143 1165 150 1169 150C 1173 150 1175 162 1174 178C 1172 215 1179 230 1196 223C 1204 220 1207 214 1204 209zM1567 198C 1564 190 1561 193 1561 204C 1560 215 1563 221 1566 217C 1569 214 1570 205 1567 198zM1615 210C 1618 204 1614 203 1606 206C 1588 213 1585 220 1599 220C 1605 220 1612 216 1615 210zM970 179C 970 165 953 169 947 184C 943 194 946 197 956 193C 963 190 970 184 970 179zM1095 182C 1093 179 1095 169 1101 158C 1108 144 1108 135 1099 124C 1090 114 1090 107 1099 96C 1108 85 1107 81 1094 76C 1082 72 1079 74 1083 85C 1087 93 1085 102 1080 105C 1074 109 1070 105 1070 98C 1069 90 1064 92 1055 103C 1039 125 1046 158 1063 141C 1069 135 1078 130 1082 130C 1095 130 1091 158 1075 174C 1061 187 1062 189 1079 187C 1090 186 1097 184 1095 182zM438 155C 435 152 429 157 426 167C 420 181 421 182 431 173C 438 166 441 158 438 155zM403 158C 397 151 391 138 388 130C 385 121 381 120 377 127C 373 133 377 146 386 154C 404 173 417 175 403 158zM615 150C 612 145 602 140 594 140C 586 140 582 145 585 150C 588 156 598 160 606 160C 614 160 618 156 615 150zM870 156C 870 153 866 148 860 145C 855 142 850 144 850 149C 850 155 855 160 860 160C 866 160 870 158 870 156zM934 134C 943 110 938 110 916 131C 900 147 899 150 912 150C 921 150 931 143 934 134zM470 130C 470 125 466 120 460 120C 455 120 450 125 450 130C 450 136 455 140 460 140C 466 140 470 136 470 130zM728 119C 738 103 737 103 709 117C 675 134 672 139 699 137C 709 137 722 128 728 119zM1007 93C 1008 74 1006 71 999 81C 988 98 987 120 998 120C 1002 120 1006 108 1007 93zM1350 116C 1350 114 1343 109 1334 106C 1326 103 1322 104 1325 110C 1331 120 1350 124 1350 116zM430 100C 430 95 426 90 420 90C 415 90 410 95 410 100C 410 106 415 110 420 110C 426 110 430 106 430 100zM860 100C 860 95 853 90 844 90C 836 90 832 95 835 100C 838 106 845 110 851 110C 856 110 860 106 860 100zM1186 73C 1183 70 1173 73 1165 80C 1152 90 1152 95 1162 101C 1175 109 1197 84 1186 73zM1273 75C 1270 66 1265 61 1263 64C 1260 67 1261 73 1265 79C 1274 95 1280 92 1273 75zM815 70C 812 65 805 60 799 60C 794 60 790 65 790 70C 790 76 797 80 806 80C 814 80 818 76 815 70zM837 48C 834 41 832 46 832 60C 832 74 834 79 837 73C 839 66 839 54 837 48zM510 57C 510 50 501 44 489 43C 472 41 471 44 480 56C 495 73 510 74 510 57zM420 40C 420 35 418 30 416 30C 413 30 408 35 405 40C 402 46 404 50 409 50C 415 50 420 46 420 40zM665 40C 668 35 666 30 661 30C 655 30 650 35 650 40C 650 46 652 50 654 50C 657 50 662 46 665 40z" stroke="none" fill="#000000" fill-rule="nonzero" />
        <path d="M650 1226C 640 1213 641 1209 656 1203C 667 1200 678 1192 682 1186C 687 1179 690 1182 690 1193C 690 1202 697 1210 705 1210C 713 1210 720 1215 720 1220C 720 1226 714 1230 706 1230C 698 1230 685 1232 677 1235C 670 1238 657 1234 650 1226z" stroke="none" fill="#000000" fill-rule="nonzero" />
        <path d="M479 1204C 470 1193 472 1190 493 1190C 525 1190 537 1206 510 1213C 500 1216 486 1212 479 1204z" stroke="none" fill="#000000" fill-rule="nonzero" />
        <path d="M1395 1200C 1392 1195 1396 1190 1404 1190C 1413 1190 1420 1195 1420 1200C 1420 1206 1416 1210 1411 1210C 1405 1210 1398 1206 1395 1200z" stroke="none" fill="#000000" fill-rule="nonzero" />
        <path d="M1430 1191C 1430 1182 1453 1170 1470 1170C 1474 1170 1480 1177 1484 1185C 1488 1196 1482 1200 1460 1200C 1443 1200 1430 1196 1430 1191z" stroke="none" fill="#000000" fill-rule="nonzero" />
        <path d="M1497 1184C 1489 1176 1498 1160 1510 1160C 1514 1160 1520 1167 1524 1175C 1529 1190 1510 1196 1497 1184z" stroke="none" fill="#000000" fill-rule="nonzero" />
        <path d="M696 1161C 692 1155 684 1152 679 1155C 674 1159 670 1156 670 1150C 670 1137 693 1127 715 1132C 729 1135 729 1137 717 1154C 707 1167 701 1170 696 1161z" stroke="none" fill="#000000" fill-rule="nonzero" />
        <path d="M1075 1150C 1072 1145 1073 1140 1079 1140C 1084 1140 1092 1145 1095 1150C 1098 1156 1097 1160 1091 1160C 1086 1160 1078 1156 1075 1150z" stroke="none" fill="#000000" fill-rule="nonzero" />
        <path d="M408 1143C 415 1140 424 1141 427 1144C 431 1147 425 1150 414 1149C 403 1149 400 1146 408 1143z" stroke="none" fill="#000000" fill-rule="nonzero" />
        <path d="M400 1115C 400 1107 405 1100 410 1100C 416 1100 420 1107 420 1115C 420 1123 416 1130 410 1130C 405 1130 400 1123 400 1115z" stroke="none" fill="#000000" fill-rule="nonzero" />
        <path d="M483 1093C 492 1091 506 1091 513 1093C 519 1096 512 1098 495 1098C 479 1098 473 1096 483 1093z" stroke="none" fill="#000000" fill-rule="nonzero" />
        <path d="M978 1083C 984 1081 996 1081 1003 1083C 1009 1086 1004 1088 990 1088C 976 1088 971 1086 978 1083z" stroke="none" fill="#000000" fill-rule="nonzero" />
        <path d="M1012 1004C 1010 976 1017 974 1048 996C 1074 1014 1070 1028 1037 1028C 1020 1028 1014 1021 1012 1004z" stroke="none" fill="#000000" fill-rule="nonzero" />
        <path d="M1081 982C 1074 969 1073 953 1079 938C 1088 917 1091 920 1094 953C 1095 959 1099 968 1105 972C 1111 977 1111 983 1103 991C 1095 999 1089 997 1081 982z" stroke="none" fill="#000000" fill-rule="nonzero" />
        <path d="M1261 986C 1244 976 1241 971 1250 965C 1258 960 1266 964 1272 974C 1282 992 1310 996 1310 979C 1310 974 1304 972 1298 976C 1288 982 1288 980 1298 968C 1308 955 1308 951 1298 947C 1282 942 1288 935 1316 926C 1330 922 1344 925 1353 935C 1362 943 1373 950 1379 950C 1384 950 1392 955 1396 962C 1400 969 1399 970 1392 966C 1386 962 1362 968 1338 980C 1289 1003 1292 1003 1261 986z" stroke="none" fill="#000000" fill-rule="nonzero" />
        <path d="M1260 940C 1260 935 1265 930 1270 930C 1276 930 1280 935 1280 940C 1280 946 1276 950 1270 950C 1265 950 1260 946 1260 940z" stroke="none" fill="#000000" fill-rule="nonzero" />
        <path d="M1355 910C 1347 898 1360 850 1371 850C 1376 850 1380 846 1380 840C 1380 822 1421 787 1432 798C 1443 809 1432 860 1419 860C 1414 860 1410 867 1410 875C 1410 884 1403 893 1395 896C 1387 900 1383 906 1386 911C 1389 916 1384 920 1376 920C 1368 920 1359 916 1355 910z" stroke="none" fill="#000000" fill-rule="nonzero" />
        <path d="M1716 1142C 1714 1138 1720 1133 1731 1133C 1741 1132 1750 1135 1750 1141C 1750 1152 1723 1153 1716 1142z" stroke="none" fill="#000000" fill-rule="nonzero" />
        <path d="M764 998C 761 994 768 990 779 990C 790 990 801 994 805 999C 808 1005 801 1008 789 1007C 778 1006 766 1002 764 998z" stroke="none" fill="#000000" fill-rule="nonzero" />
        <path d="M885 429C 881 423 880 417 883 414C 890 407 920 421 920 431C 920 444 893 442 885 429z" stroke="none" fill="#000000" fill-rule="nonzero" />
        <path d="M900 340C 891 334 890 330 897 330C 903 330 912 335 915 340C 923 352 919 352 900 340z" stroke="none" fill="#000000" fill-rule="nonzero" />
        <path d="M846 285C 850 277 853 270 855 270C 857 270 860 277 864 285C 867 294 864 300 855 300C 846 300 843 294 846 285z" stroke="none" fill="#000000" fill-rule="nonzero" />
        <path d="M829 215C 828 212 827 205 826 199C 826 192 816 184 805 179C 789 173 788 171 802 171C 819 170 833 185 836 208C 838 219 831 226 829 215z" stroke="none" fill="#000000" fill-rule="nonzero" />
	</g>
</g>
</svg>